:FULLY-SPECIFIED
:FORCE-ALL-JOINTS-BE-3DOF
:DEGREES
510
root 5.90431 16.2645 -5.21969 -168.245 77.6891 -173.794
lfemur -24.8918 -14.0212 -23.3593
ltibia 53.4108 -0 0
lfoot -26.672 0.606834 -0.0399563
ltoes 4.51999 -0 0
rfemur -57.1178 4.82264 4.36087
rtibia 57.6872 -0 0
rfoot 12.3304 8.90846 -0.0105056
rtoes -19.2039 0 0
lowerback 8.48604 0.424414 -0.728184
upperback 1.43273 0.724133 3.26851
thorax -3.3281 0.417867 3.71684
lowerneck -8.21826 -12.6193 -4.21517
upperneck 11.5175 -16.7765 2.90548
head 5.50574 -8.17518 0.278736
lclavicle 7.0817e-15 -1.86858e-14 0
lhumerus -46.6022 -34.0037 117.768
lradius 57.0971 -0 0
lwrist 6.64249 0 0
lhand 4.35178 -1.48663 0.0155726
lfingers 7.12502 -0 0
lthumb 29.7503 26.1346 0.0110089
rclavicle 7.0817e-15 -1.86858e-14 0
rhumerus -12.1006 37.7335 -72.4471
rradius 117.445 -0 0
rwrist -24.8114 0 0
rhand 24.3829 -14.7115 0.151177
rfingers 7.12502 -0 0
rthumb 48.4022 -35.0217 0.612705
511
root 5.96381 16.2473 -5.16177 -168.618 76.3663 -174.062
lfemur -24.7606 -13.6964 -23.4009
ltibia 54.0042 -0 0
lfoot -26.8947 1.13365 -0.028684
ltoes 3.4999 -0 0
rfemur -57.0985 4.76462 3.93915
rtibia 56.2806 -0 0
rfoot 12.5183 8.74425 -0.00754233
rtoes -19.4845 0 0
lowerback 8.74723 0.492314 -0.680305
upperback 1.53117 0.829941 3.44367
thorax -3.37994 0.47501 3.86171
lowerneck -8.1547 -12.8712 -4.42073
upperneck 11.8082 -17.1116 2.98878
head 5.59203 -8.33449 0.298788
lclavicle 7.0817e-15 -1.86858e-14 0
lhumerus -46.4191 -34.1098 117.945
lradius 57.1747 -0 0
lwrist 6.84844 0 0
lhand 4.0967 -1.66596 0.0111801
lfingers 7.12502 -0 0
lthumb 29.5072 26.0016 0.00790364
rclavicle 7.0817e-15 -1.86858e-14 0
rhumerus -9.59788 37.6049 -70.4564
rradius 119.907 -0 0
rwrist -28.818 0 0
rhand 26.6165 -14.515 0.108384
rfingers 7.12502 -0 0
rthumb 50.4971 -34.1728 0.439256
512
root 6.02332 16.23 -5.10384 -168.935 75.0431 -174.273
lfemur -24.6298 -13.3715 -23.4417
ltibia 54.5977 -0 0
lfoot -27.1173 1.66042 -0.0153648
ltoes 2.4798 -0 0
rfemur -57.0788 4.70674 3.51745
rtibia 54.874 -0 0
rfoot 12.7063 8.58005 -0.00404045
rtoes -19.7652 0 0
lowerback 9.00847 0.559994 -0.632116
upperback 1.62993 0.935447 3.61901
thorax -3.43163 0.532284 4.00654
lowerneck -8.09014 -13.123 -4.62678
upperneck 12.099 -17.447 3.07045
head 5.67829 -8.49383 0.318606
lclavicle 7.0817e-15 -1.86858e-14 0
lhumerus -46.2362 -34.2165 118.122
lradius 57.2523 -0 0
lwrist 7.05439 0 0
lhand 3.84163 -1.84528 0.00598912
lfingers 7.12502 -0 0
lthumb 29.264 25.8686 0.00423399
rclavicle 7.0817e-15 -1.86858e-14 0
rhumerus -7.1077 37.4078 -68.479
rradius 122.37 -0 0
rwrist -32.8245 0 0
rhand 28.8499 -14.3204 0.057966
rfingers 7.12502 -0 0
rthumb 52.5892 -33.3309 0.234915
513
root 6.08282 16.2127 -5.04592 -169.21 73.7197 -174.442
lfemur -24.4995 -13.0466 -23.4816
ltibia 55.1912 0 0
lfoot -27.3397 2.18714 0
ltoes 1.45971 0 0
rfemur -57.0586 4.64901 3.09577
rtibia 53.4674 0 0
rfoot 12.8942 8.41587 0
rtoes -20.0459 0 0
lowerback 9.26978 0.627455 -0.583619
upperback 1.72902 1.04065 3.79454
thorax -3.48318 0.589689 4.15131
lowerneck -8.02459 -13.3745 -4.83334
upperneck 12.3898 -17.7829 3.15048
head 5.76454 -8.6532 0.338189
lclavicle 1.61016e-14 3.81667e-14 0
lhumerus -46.0534 -34.3236 118.299
lradius 57.3299 0 0
lwrist 7.26034 0 0
lhand 3.58658 -2.02457 0
lfingers 7.12502 0 0
lthumb 29.0209 25.7356 0
rclavicle 1.61016e-14 3.81667e-14 0
rhumerus -4.63515 37.143 -66.5202
rradius 124.832 0 0
rwrist -36.831 0 0
rhand 31.0831 -14.1278 0
rfingers 7.12502 0 0
rthumb 54.678 -752.497 0
514
root 6.15069 16.1406 -4.9914 -170.061 72.5514 -175.19
lfemur -24.8834 -12.5821 -23.3633
ltibia 56.5386 -0 0
lfoot -27.6466 2.23871 -0.00207328
ltoes 0.848309 -0 0
rfemur -56.4268 4.40409 2.5534
rtibia 52.9876 -0 0
rfoot 12.6612 8.52049 -0.00319162
rtoes -21.4345 0 0
lowerback 9.47167 0.662786 -0.431325
upperback 1.95072 1.1408 4.00438
thorax -3.37141 0.648287 4.2758
lowerneck -7.85778 -13.5628 -4.95404
upperneck 12.465 -18.0399 3.30593
head 5.80147 -8.7717 0.382087
lclavicle 1.61016e-14 3.81667e-14 0
lhumerus -45.8658 -33.7914 117.937
lradius 57.5385 -0 0
lwrist 8.06112 0 0
lhand 2.16536 -2.3476 0.0608378
lfingers 7.12502 -0 0
lthumb 27.6539 25.5422 0.034991
rclavicle 1.61016e-14 3.81667e-14 0
rhumerus -3.46071 35.3368 -67.1117
rradius 125.64 -0 0
rwrist -37.696 0 0
rhand 27.4723 -14.6729 0.279378
rfingers 7.12502 -0 0
rthumb 51.2795 -33.7251 0.592468
515
root 6.21856 16.0685 -4.93688 -170.812 71.3801 -175.839
lfemur -25.2656 -12.1168 -23.2484
ltibia 57.886 -0 0
lfoot -27.9536 2.2903 -0.00387025
ltoes 0.236909 -0 0
rfemur -55.7929 4.16517 2.00853
rtibia 52.5078 -0 0
rfoot 12.4282 8.62511 -0.00595782
rtoes -22.8231 0 0
lowerback 9.67366 0.69758 -0.278906
upperback 2.1728 1.24013 4.21461
thorax -3.25951 0.706641 4.40041
lowerneck -7.69043 -13.7508 -5.0754
upperneck 12.5395 -18.297 3.46125
head 5.83831 -8.89023 0.425922
lclavicle 1.61016e-14 3.81667e-14 0
lhumerus -45.6834 -33.2582 117.579
lradius 57.747 -0 0
lwrist 8.8619 0 0
lhand 0.743816 -2.67205 0.113644
lfingers 7.12502 -0 0
lthumb 26.2869 25.348 0.0653578
rclavicle 1.61016e-14 3.81667e-14 0
rhumerus -2.28902 33.5407 -67.7349
rradius 126.448 -0 0
rwrist -38.5611 0 0
rhand 23.8589 -15.2345 0.523861
rfingers 7.12502 -0 0
rthumb 47.8687 -34.9862 1.11096
516
root 6.28644 15.9963 -4.88236 -171.481 70.2065 -176.405
lfemur -25.6462 -11.6508 -23.1369
ltibia 59.2334 -0 0
lfoot -28.2605 2.34189 -0.00539085
ltoes -0.374492 0 0
rfemur -55.1569 3.93227 1.4612
rtibia 52.028 -0 0
rfoot 12.1952 8.72975 -0.00829854
rtoes -24.2116 0 0
lowerback 9.87574 0.731836 -0.126364
upperback 2.39525 1.33865 4.42523
thorax -3.14749 0.764752 4.52513
lowerneck -7.52253 -13.9384 -5.19743
upperneck 12.6134 -18.5544 3.61646
head 5.87508 -9.00879 0.469694
lclavicle 1.61016e-14 3.81667e-14 0
lhumerus -45.506 -32.7241 117.225
lradius 57.9556 -0 0
lwrist 9.66268 0 0
lhand -0.678006 -2.9977 0.158384
lfingers 7.12502 -0 0
lthumb 24.9197 25.1531 0.0910827
rclavicle 1.61016e-14 3.81667e-14 0
rhumerus -1.11766 31.7555 -68.3887
rradius 127.255 -0 0
rwrist -39.4261 0 0
rhand 20.2432 -15.8104 0.732451
rfingers 7.12502 -0 0
rthumb 44.4466 -36.2763 1.55337
517
root 6.35431 15.9242 -4.82784 -172.082 69.0308 -176.903
lfemur -26.0252 -11.1841 -23.0287
ltibia 60.5808 -0 0
lfoot -28.5675 2.39349 -0.00663503
ltoes -0.985892 0 0
rfemur -54.5189 3.70546 0.911464
rtibia 51.5482 -0 0
rfoot 11.9623 8.8344 -0.0102137
rtoes -25.6002 0 0
lowerback 10.0779 0.765554 0.0262989
upperback 2.61807 1.43635 4.63624
thorax -3.03534 0.822619 4.64996
lowerneck -7.35408 -14.1257 -5.32012
upperneck 12.6867 -18.8119 3.77154
head 5.91177 -9.12737 0.513403
lclavicle 1.61016e-14 3.81667e-14 0
lhumerus -45.3336 -32.189 116.876
lradius 58.1641 -0 0
lwrist 10.4635 0 0
lhand -2.10006 -3.32437 0.195029
lfingers 7.12502 -0 0
lthumb 23.5524 24.9577 0.112151
rclavicle 1.61016e-14 3.81667e-14 0
rhumerus 0.055593 29.982 -69.0725
rradius 128.063 -0 0
rwrist -40.2911 0 0
rhand 16.6253 -16.3984 0.904297
rfingers 7.12502 -0 0
rthumb 41.0147 -37.5908 1.9179
518
root 6.42218 15.8521 -4.77332 -172.625 67.8535 -177.342
lfemur -26.4028 -10.7167 -22.9238
ltibia 61.9283 -0 0
lfoot -28.8744 2.4451 -0.00760277
ltoes -1.59729 0 0
rfemur -53.8789 3.48479 0.359364
rtibia 51.0684 -0 0
rfoot 11.7293 8.93905 -0.0117034
rtoes -26.9888 0 0
lowerback 10.2802 0.798733 0.179081
upperback 2.84126 1.53323 4.84764
thorax -2.92306 0.880241 4.77491
lowerneck -7.18509 -14.3126 -5.44348
upperneck 12.7594 -19.0697 3.92652
head 5.94837 -9.24598 0.55705
lclavicle 1.61016e-14 3.81667e-14 0
lhumerus -45.1661 -31.6531 116.53
lradius 58.3727 -0 0
lwrist 11.2642 0 0
lhand -3.52231 -3.65185 0.223556
lfingers 7.12502 -0 0
lthumb 22.1851 24.7618 0.12855
rclavicle 1.61016e-14 3.81667e-14 0
rhumerus 1.23281 28.2209 -69.7858
rradius 128.871 -0 0
rwrist -41.1562 0 0
rhand 13.0058 -16.9961 1.03869
rfingers 7.12502 -0 0
rthumb 37.5746 -38.925 2.20302
